<svg width="93" height="39" viewBox="0 0 93 39" fill="none" xmlns="http://www.w3.org/2000/svg">
<path fill-rule="evenodd" clip-rule="evenodd" d="M64.9916 0V30.334H70.4084V0H64.9916ZM78.1934 23.6163H72.9932C72.9932 25.133 74.2933 30.7665 82.5268 30.7665C88.9836 30.7665 92.0604 27.6897 92.0604 24.0497C92.0604 20.1062 89.677 18.0262 85.1269 17.3328L81.4434 16.7695C79.4067 16.4661 78.41 15.7728 78.41 14.7328C78.41 13.3894 79.7101 12.1327 82.3101 12.1327C84.9102 12.1327 86.4269 13.6061 86.4269 14.9494H91.627C91.627 12.3494 88.767 7.79927 82.3101 7.79927C76.2433 7.79927 72.9932 11.0493 72.9932 14.7328C72.9932 18.4162 75.5933 20.2796 80.1434 21.0162L83.6102 21.5796C86.0369 21.9696 86.6436 22.7063 86.6436 24.0497C86.6436 25.393 85.6035 26.433 82.5268 26.433C79.5367 26.433 78.1934 24.6997 78.1934 23.6163ZM40.5246 21.4501V8.23316H45.9414V21.0168C45.9414 23.8335 47.8914 25.7836 50.7082 25.7836C53.5249 25.7836 55.475 23.8335 55.475 21.0168V8.23316H60.8918V30.3337H55.9083L55.475 28.167H55.2583C54.8683 28.6436 54.3483 29.077 53.7849 29.467C52.7882 30.117 51.2282 30.767 49.1915 30.767C44.208 30.767 40.5246 27.0836 40.5246 21.4501ZM26.6469 12.7827C29.9403 12.7827 32.2804 15.1228 32.2804 19.2829C32.2804 23.443 29.9403 25.783 26.6469 25.783C23.3535 25.783 21.0135 23.443 21.0135 19.2829C21.0135 15.1228 23.3535 12.7827 26.6469 12.7827ZM15.5967 8.23261V39H21.0135V28.1664H21.2301C21.6202 28.6431 22.0968 29.0764 22.6602 29.4664C23.6569 30.1165 25.2169 30.7665 27.5136 30.7665C33.1471 30.7665 37.6972 26.2164 37.6972 19.2829C37.6972 12.3494 33.1471 7.79927 27.5136 7.79927C25.3036 7.79927 23.7869 8.53595 22.7468 9.2293C22.1402 9.61931 21.6202 10.096 21.2301 10.616H21.0135L20.5801 8.23261H15.5967ZM7.19791 11.4574C7.19791 13.445 5.5866 15.0563 3.59895 15.0563C1.61131 15.0563 0 13.445 0 11.4574C0 9.46974 1.61131 7.85843 3.59895 7.85843C5.5866 7.85843 7.19791 9.46974 7.19791 11.4574ZM3.59895 31.509C5.5866 31.509 7.19791 29.8977 7.19791 27.91C7.19791 25.9224 5.5866 24.3111 3.59895 24.3111C1.61131 24.3111 0 25.9224 0 27.91C0 29.8977 1.61131 31.509 3.59895 31.509Z" fill="black"/>
<path fill-rule="evenodd" clip-rule="evenodd" d="M64.9916 0V30.334H70.4084V0H64.9916ZM78.1934 23.6163H72.9932C72.9932 25.133 74.2933 30.7665 82.5268 30.7665C88.9836 30.7665 92.0604 27.6897 92.0604 24.0497C92.0604 20.1062 89.677 18.0262 85.1269 17.3328L81.4434 16.7695C79.4067 16.4661 78.41 15.7728 78.41 14.7328C78.41 13.3894 79.7101 12.1327 82.3101 12.1327C84.9102 12.1327 86.4269 13.6061 86.4269 14.9494H91.627C91.627 12.3494 88.767 7.79927 82.3101 7.79927C76.2433 7.79927 72.9932 11.0493 72.9932 14.7328C72.9932 18.4162 75.5933 20.2796 80.1434 21.0162L83.6102 21.5796C86.0369 21.9696 86.6436 22.7063 86.6436 24.0497C86.6436 25.393 85.6035 26.433 82.5268 26.433C79.5367 26.433 78.1934 24.6997 78.1934 23.6163ZM40.5246 21.4501V8.23316H45.9414V21.0168C45.9414 23.8335 47.8914 25.7836 50.7082 25.7836C53.5249 25.7836 55.475 23.8335 55.475 21.0168V8.23316H60.8918V30.3337H55.9083L55.475 28.167H55.2583C54.8683 28.6436 54.3483 29.077 53.7849 29.467C52.7882 30.117 51.2282 30.767 49.1915 30.767C44.208 30.767 40.5246 27.0836 40.5246 21.4501ZM26.6469 12.7827C29.9403 12.7827 32.2804 15.1228 32.2804 19.2829C32.2804 23.443 29.9403 25.783 26.6469 25.783C23.3535 25.783 21.0135 23.443 21.0135 19.2829C21.0135 15.1228 23.3535 12.7827 26.6469 12.7827ZM15.5967 8.23261V39H21.0135V28.1664H21.2301C21.6202 28.6431 22.0968 29.0764 22.6602 29.4664C23.6569 30.1165 25.2169 30.7665 27.5136 30.7665C33.1471 30.7665 37.6972 26.2164 37.6972 19.2829C37.6972 12.3494 33.1471 7.79927 27.5136 7.79927C25.3036 7.79927 23.7869 8.53595 22.7468 9.2293C22.1402 9.61931 21.6202 10.096 21.2301 10.616H21.0135L20.5801 8.23261H15.5967ZM7.19791 11.4574C7.19791 13.445 5.5866 15.0563 3.59895 15.0563C1.61131 15.0563 0 13.445 0 11.4574C0 9.46974 1.61131 7.85843 3.59895 7.85843C5.5866 7.85843 7.19791 9.46974 7.19791 11.4574ZM3.59895 31.509C5.5866 31.509 7.19791 29.8977 7.19791 27.91C7.19791 25.9224 5.5866 24.3111 3.59895 24.3111C1.61131 24.3111 0 25.9224 0 27.91C0 29.8977 1.61131 31.509 3.59895 31.509Z" fill="black"/>
</svg>
